<svg viewBox="-16 -32 880 192" width="880" height="192" xmlns="http://www.w3.org/2000/svg"><style>@keyframes c0{12.14%{fill:var(--c1)}12.16%,to{fill:var(--ce)}}@keyframes c1{15.88%{fill:var(--c1)}15.9%,to{fill:var(--ce)}}@keyframes c2{76%{fill:var(--c4)}76.02%,to{fill:var(--ce)}}@keyframes c3{75.69%{fill:var(--c3)}75.71%,to{fill:var(--ce)}}@keyframes c4{61.05%{fill:var(--c2)}61.07%,to{fill:var(--ce)}}@keyframes c5{12.76%{fill:var(--c1)}12.78%,to{fill:var(--ce)}}@keyframes c6{14.94%{fill:var(--c1)}14.96%,to{fill:var(--ce)}}@keyframes c7{63.23%{fill:var(--c2)}63.25%,to{fill:var(--ce)}}@keyframes c8{19.93%{fill:var(--c1)}19.95%,to{fill:var(--ce)}}@keyframes c9{13.07%{fill:var(--c1)}13.09%,to{fill:var(--ce)}}@keyframes ca{14.63%{fill:var(--c1)}14.65%,to{fill:var(--ce)}}@keyframes cb{16.81%{fill:var(--c1)}16.83%,to{fill:var(--ce)}}@keyframes cc{16.5%{fill:var(--c1)}16.52%,to{fill:var(--ce)}}@keyframes cd{19.3%{fill:var(--c1)}19.32%,to{fill:var(--ce)}}@keyframes ce{19.62%{fill:var(--c1)}19.64%,to{fill:var(--ce)}}@keyframes cf{20.55%{fill:var(--c1)}20.57%,to{fill:var(--ce)}}@keyframes cg{13.39%{fill:var(--c1)}13.41%,to{fill:var(--ce)}}@keyframes ch{57.31%{fill:var(--c2)}57.33%,to{fill:var(--ce)}}@keyframes ci{57%{fill:var(--c2)}57.02%,to{fill:var(--ce)}}@keyframes cj{77.25%{fill:var(--c4)}77.27%,to{fill:var(--ce)}}@keyframes ck{55.75%{fill:var(--c2)}55.77%,to{fill:var(--ce)}}@keyframes cl{74.76%{fill:var(--c3)}74.78%,to{fill:var(--ce)}}@keyframes cm{60.11%{fill:var(--c2)}60.13%,to{fill:var(--ce)}}@keyframes cn{72.26%{fill:var(--c3)}72.28%,to{fill:var(--ce)}}@keyframes co{57.62%{fill:var(--c2)}57.64%,to{fill:var(--ce)}}@keyframes cp{77.87%{fill:var(--c4)}77.89%,to{fill:var(--ce)}}@keyframes cq{38.31%{fill:var(--c1)}38.33%,to{fill:var(--ce)}}@keyframes cr{38.62%{fill:var(--c1)}38.64%,to{fill:var(--ce)}}@keyframes cs{50.15%{fill:var(--c2)}50.17%,to{fill:var(--ce)}}@keyframes ct{49.83%{fill:var(--c2)}49.85%,to{fill:var(--ce)}}@keyframes cu{48.9%{fill:var(--c1)}48.92%,to{fill:var(--ce)}}@keyframes cv{38%{fill:var(--c1)}38.02%,to{fill:var(--ce)}}@keyframes cw{55.13%{fill:var(--c2)}55.15%,to{fill:var(--ce)}}@keyframes cx{22.42%{fill:var(--c1)}22.44%,to{fill:var(--ce)}}@keyframes cy{22.11%{fill:var(--c1)}22.13%,to{fill:var(--ce)}}@keyframes cz{29.27%{fill:var(--c1)}29.29%,to{fill:var(--ce)}}@keyframes c10{49.52%{fill:var(--c2)}49.54%,to{fill:var(--ce)}}@keyframes c11{49.21%{fill:var(--c2)}49.23%,to{fill:var(--ce)}}@keyframes c12{37.68%{fill:var(--c1)}37.7%,to{fill:var(--ce)}}@keyframes c13{37.37%{fill:var(--c1)}37.39%,to{fill:var(--ce)}}@keyframes c14{54.2%{fill:var(--c2)}54.22%,to{fill:var(--ce)}}@keyframes c15{28.96%{fill:var(--c1)}28.98%,to{fill:var(--ce)}}@keyframes c16{28.65%{fill:var(--c1)}28.67%,to{fill:var(--ce)}}@keyframes c17{46.41%{fill:var(--c1)}46.43%,to{fill:var(--ce)}}@keyframes c18{52.33%{fill:var(--c2)}52.35%,to{fill:var(--ce)}}@keyframes c19{36.44%{fill:var(--c1)}36.46%,to{fill:var(--ce)}}@keyframes c1a{51.08%{fill:var(--c2)}51.1%,to{fill:var(--ce)}}@keyframes c1b{28.34%{fill:var(--c1)}28.36%,to{fill:var(--ce)}}@keyframes c1c{46.72%{fill:var(--c2)}46.74%,to{fill:var(--ce)}}@keyframes c1d{33.32%{fill:var(--c1)}33.34%,to{fill:var(--ce)}}@keyframes c1e{23.67%{fill:var(--c1)}23.69%,to{fill:var(--ce)}}@keyframes c1f{53.26%{fill:var(--c2)}53.28%,to{fill:var(--ce)}}@keyframes c1g{36.13%{fill:var(--c1)}36.15%,to{fill:var(--ce)}}@keyframes c1h{27.72%{fill:var(--c1)}27.74%,to{fill:var(--ce)}}@keyframes c1i{28.03%{fill:var(--c1)}28.05%,to{fill:var(--ce)}}@keyframes c1j{31.45%{fill:var(--c1)}31.47%,to{fill:var(--ce)}}@keyframes c1k{23.98%{fill:var(--c1)}24%,to{fill:var(--ce)}}@keyframes c1l{34.26%{fill:var(--c1)}34.28%,to{fill:var(--ce)}}@keyframes c1m{35.82%{fill:var(--c1)}35.84%,to{fill:var(--ce)}}@keyframes c1n{27.4%{fill:var(--c1)}27.42%,to{fill:var(--ce)}}@keyframes c1o{27.09%{fill:var(--c1)}27.11%,to{fill:var(--ce)}}@keyframes c1p{31.77%{fill:var(--c1)}31.79%,to{fill:var(--ce)}}@keyframes c1q{24.29%{fill:var(--c1)}24.31%,to{fill:var(--ce)}}@keyframes c1r{35.5%{fill:var(--c1)}35.52%,to{fill:var(--ce)}}@keyframes c1s{26.78%{fill:var(--c1)}26.8%,to{fill:var(--ce)}}@keyframes c1t{32.08%{fill:var(--c1)}32.1%,to{fill:var(--ce)}}@keyframes c1u{24.91%{fill:var(--c1)}24.93%,to{fill:var(--ce)}}@keyframes c1v{24.6%{fill:var(--c1)}24.62%,to{fill:var(--ce)}}@keyframes c1w{34.88%{fill:var(--c1)}34.9%,to{fill:var(--ce)}}@keyframes c1x{35.19%{fill:var(--c1)}35.21%,to{fill:var(--ce)}}@keyframes c1y{26.47%{fill:var(--c1)}26.49%,to{fill:var(--ce)}}@keyframes c1z{25.22%{fill:var(--c1)}25.24%,to{fill:var(--ce)}}@keyframes c20{69.46%{fill:var(--c3)}69.48%,to{fill:var(--ce)}}@keyframes c21{25.85%{fill:var(--c1)}25.87%,to{fill:var(--ce)}}@keyframes c22{67.9%{fill:var(--c2)}67.92%,to{fill:var(--ce)}}@keyframes c23{81.3%{fill:var(--c4)}81.32%,to{fill:var(--ce)}}@keyframes c24{81.61%{fill:var(--c4)}81.63%,to{fill:var(--ce)}}@keyframes c25{42.05%{fill:var(--c1)}42.07%,to{fill:var(--ce)}}@keyframes u0{12.14%{transform:scale(0,1)}12.16%,12.76%{transform:scale(.02,1)}12.78%,13.07%{transform:scale(.04,1)}13.09%,13.39%{transform:scale(.06,1)}13.41%,14.63%{transform:scale(.08,1)}14.65%,14.94%{transform:scale(.1,1)}14.96%,15.88%{transform:scale(.12,1)}15.9%,16.5%{transform:scale(.14,1)}16.52%,16.81%{transform:scale(.16,1)}16.83%,19.3%{transform:scale(.18,1)}19.32%,19.62%{transform:scale(.2,1)}19.64%,19.93%{transform:scale(.22,1)}19.95%,20.55%{transform:scale(.24,1)}20.57%,22.11%{transform:scale(.26,1)}22.13%,22.42%{transform:scale(.28,1)}22.44%,23.67%{transform:scale(.3,1)}23.69%,23.98%{transform:scale(.32,1)}24%,24.29%{transform:scale(.34,1)}24.31%,24.6%{transform:scale(.36,1)}24.62%,24.91%{transform:scale(.38,1)}24.93%,25.22%{transform:scale(.4,1)}25.24%,25.85%{transform:scale(.42,1)}25.87%,26.47%{transform:scale(.44,1)}26.49%,26.78%{transform:scale(.46,1)}26.8%,27.09%{transform:scale(.48,1)}27.11%,27.4%{transform:scale(.5,1)}27.42%,27.72%{transform:scale(.52,1)}27.74%,28.03%{transform:scale(.54,1)}28.05%,28.34%{transform:scale(.56,1)}28.36%,28.65%{transform:scale(.58,1)}28.67%,28.96%{transform:scale(.6,1)}28.98%,29.27%{transform:scale(.62,1)}29.29%,31.45%{transform:scale(.64,1)}31.47%,31.77%{transform:scale(.66,1)}31.79%,32.08%{transform:scale(.68,1)}32.1%,33.32%{transform:scale(.7,1)}33.34%,34.26%{transform:scale(.72,1)}34.28%,34.88%{transform:scale(.74,1)}34.9%,35.19%{transform:scale(.76,1)}35.21%,35.5%{transform:scale(.78,1)}35.52%,35.82%{transform:scale(.8,1)}35.84%,36.13%{transform:scale(.82,1)}36.15%,36.44%{transform:scale(.84,1)}36.46%,37.37%{transform:scale(.86,1)}37.39%,37.68%{transform:scale(.88,1)}37.7%,38%{transform:scale(.9,1)}38.02%,38.31%{transform:scale(.92,1)}38.33%,38.62%{transform:scale(.94,1)}38.64%,42.05%{transform:scale(.96,1)}42.07%,46.41%{transform:scale(.98,1)}46.43%,to{transform:scale(1,1)}}@keyframes u1{46.72%{transform:scale(0,1)}46.74%,to{transform:scale(1,1)}}@keyframes u2{48.9%{transform:scale(0,1)}48.92%,to{transform:scale(1,1)}}@keyframes u3{49.21%{transform:scale(0,1)}49.23%,49.52%{transform:scale(.06,1)}49.54%,49.83%{transform:scale(.12,1)}49.85%,50.15%{transform:scale(.18,1)}50.17%,51.08%{transform:scale(.24,1)}51.1%,52.33%{transform:scale(.29,1)}52.35%,53.26%{transform:scale(.35,1)}53.28%,54.2%{transform:scale(.41,1)}54.22%,55.13%{transform:scale(.47,1)}55.15%,55.75%{transform:scale(.53,1)}55.77%,57%{transform:scale(.59,1)}57.02%,57.31%{transform:scale(.65,1)}57.33%,57.62%{transform:scale(.71,1)}57.64%,60.11%{transform:scale(.76,1)}60.13%,61.05%{transform:scale(.82,1)}61.07%,63.23%{transform:scale(.88,1)}63.25%,67.9%{transform:scale(.94,1)}67.92%,to{transform:scale(1,1)}}@keyframes u4{69.46%{transform:scale(0,1)}69.48%,72.26%{transform:scale(.25,1)}72.28%,74.76%{transform:scale(.5,1)}74.78%,75.69%{transform:scale(.75,1)}75.71%,to{transform:scale(1,1)}}@keyframes u5{76%{transform:scale(0,1)}76.02%,77.25%{transform:scale(.2,1)}77.27%,77.87%{transform:scale(.4,1)}77.89%,81.3%{transform:scale(.6,1)}81.32%,81.61%{transform:scale(.8,1)}81.63%,to{transform:scale(1,1)}}@keyframes s0{0%,99.69%{transform:translate(0,-16px)}.31%{transform:translate(0,0)}13.4%{transform:translate(672px,0)}13.71%{transform:translate(672px,-16px)}14.02%{transform:translate(656px,-16px)}14.64%,17.13%{transform:translate(656px,16px)}15.26%,17.76%{transform:translate(624px,16px)}15.89%,18.38%{transform:translate(624px,48px)}16.51%{transform:translate(656px,48px)}18.69%,62.93%{transform:translate(640px,48px)}19%{transform:translate(640px,64px)}19.31%,56.07%,74.14%{transform:translate(656px,64px)}19.63%{transform:translate(656px,80px)}19.94%{transform:translate(640px,80px)}20.25%{transform:translate(640px,96px)}20.56%{transform:translate(656px,96px)}20.87%{transform:translate(656px,112px)}21.81%{transform:translate(704px,112px)}22.43%{transform:translate(704px,80px)}23.05%,39.88%{transform:translate(736px,80px)}23.36%,37.07%{transform:translate(736px,64px)}24.61%{transform:translate(800px,64px)}24.92%,32.4%{transform:translate(800px,48px)}25.23%{transform:translate(816px,48px)}25.55%{transform:translate(816px,32px)}25.86%,80.69%{transform:translate(832px,32px)}26.17%,67.29%{transform:translate(832px,16px)}27.1%{transform:translate(784px,16px)}27.41%{transform:translate(784px,0)}27.73%{transform:translate(768px,0)}28.04%{transform:translate(768px,16px)}28.66%,46.11%,51.71%{transform:translate(736px,16px)}28.97%{transform:translate(736px,0)}29.28%{transform:translate(720px,0)}29.6%{transform:translate(720px,-16px)}30.53%{transform:translate(768px,-16px)}31.46%{transform:translate(768px,32px)}32.09%,44.55%{transform:translate(800px,32px)}33.33%,52.65%{transform:translate(752px,48px)}33.64%,47.35%{transform:translate(752px,64px)}33.96%{transform:translate(768px,64px)}34.27%{transform:translate(768px,80px)}34.89%{transform:translate(800px,80px)}35.2%{transform:translate(800px,96px)}36.45%,40.19%{transform:translate(736px,96px)}37.38%,47.98%{transform:translate(720px,64px)}37.69%,48.29%{transform:translate(720px,48px)}38.32%,58.88%,77.57%{transform:translate(688px,48px)}38.94%{transform:translate(688px,80px)}42.37%{transform:translate(848px,96px)}43.61%{transform:translate(848px,32px)}44.86%{transform:translate(800px,16px)}46.42%{transform:translate(736px,32px)}46.73%{transform:translate(752px,32px)}48.6%,58.57%{transform:translate(704px,48px)}48.91%{transform:translate(704px,32px)}49.22%{transform:translate(720px,32px)}49.53%{transform:translate(720px,16px)}49.84%,57.94%{transform:translate(704px,16px)}50.16%{transform:translate(704px,0)}51.09%{transform:translate(752px,0)}51.4%{transform:translate(752px,16px)}52.34%{transform:translate(736px,48px)}53.27%{transform:translate(752px,80px)}53.89%{transform:translate(720px,80px)}54.21%{transform:translate(720px,96px)}54.52%{transform:translate(704px,96px)}55.14%{transform:translate(704px,64px)}56.7%{transform:translate(656px,32px)}57.01%,63.86%{transform:translate(672px,32px)}57.32%,64.17%{transform:translate(672px,16px)}59.81%{transform:translate(688px,96px)}61.37%{transform:translate(608px,96px)}62.31%{transform:translate(608px,48px)}63.24%{transform:translate(640px,32px)}67.91%{transform:translate(832px,48px)}68.22%{transform:translate(848px,48px)}69.16%{transform:translate(848px,0)}72.9%{transform:translate(656px,0)}74.45%,76.95%{transform:translate(672px,64px)}74.77%{transform:translate(672px,80px)}75.7%{transform:translate(624px,80px)}76.01%{transform:translate(624px,64px)}77.26%{transform:translate(672px,48px)}77.88%{transform:translate(688px,32px)}81.62%{transform:translate(832px,80px)}93.77%{transform:translate(208px,80px)}94.08%{transform:translate(208px,64px)}95.02%{transform:translate(160px,64px)}95.33%{transform:translate(160px,48px)}96.26%{transform:translate(112px,48px)}97.2%{transform:translate(112px,0)}98.13%{transform:translate(64px,0)}98.44%{transform:translate(64px,-16px)}}@keyframes s1{0%,99.69%{transform:translate(16px,-16px)}.31%{transform:translate(0,-16px)}.62%{transform:translate(0,0)}13.71%{transform:translate(672px,0)}14.02%{transform:translate(672px,-16px)}14.33%{transform:translate(656px,-16px)}14.95%,17.45%{transform:translate(656px,16px)}15.58%,18.07%{transform:translate(624px,16px)}16.2%,18.69%{transform:translate(624px,48px)}16.82%{transform:translate(656px,48px)}19%,63.24%{transform:translate(640px,48px)}19.31%{transform:translate(640px,64px)}19.63%,56.39%,74.45%{transform:translate(656px,64px)}19.94%{transform:translate(656px,80px)}20.25%{transform:translate(640px,80px)}20.56%{transform:translate(640px,96px)}20.87%{transform:translate(656px,96px)}21.18%{transform:translate(656px,112px)}22.12%{transform:translate(704px,112px)}22.74%{transform:translate(704px,80px)}23.36%,40.19%{transform:translate(736px,80px)}23.68%,37.38%{transform:translate(736px,64px)}24.92%{transform:translate(800px,64px)}25.23%,32.71%{transform:translate(800px,48px)}25.55%{transform:translate(816px,48px)}25.86%{transform:translate(816px,32px)}26.17%,81%{transform:translate(832px,32px)}26.48%,67.6%{transform:translate(832px,16px)}27.41%{transform:translate(784px,16px)}27.73%{transform:translate(784px,0)}28.04%{transform:translate(768px,0)}28.35%{transform:translate(768px,16px)}28.97%,46.42%,52.02%{transform:translate(736px,16px)}29.28%{transform:translate(736px,0)}29.6%{transform:translate(720px,0)}29.91%{transform:translate(720px,-16px)}30.84%{transform:translate(768px,-16px)}31.78%{transform:translate(768px,32px)}32.4%,44.86%{transform:translate(800px,32px)}33.64%,52.96%{transform:translate(752px,48px)}33.96%,47.66%{transform:translate(752px,64px)}34.27%{transform:translate(768px,64px)}34.58%{transform:translate(768px,80px)}35.2%{transform:translate(800px,80px)}35.51%{transform:translate(800px,96px)}36.76%,40.5%{transform:translate(736px,96px)}37.69%,48.29%{transform:translate(720px,64px)}38.01%,48.6%{transform:translate(720px,48px)}38.63%,59.19%,77.88%{transform:translate(688px,48px)}39.25%{transform:translate(688px,80px)}42.68%{transform:translate(848px,96px)}43.93%{transform:translate(848px,32px)}45.17%{transform:translate(800px,16px)}46.73%{transform:translate(736px,32px)}47.04%{transform:translate(752px,32px)}48.91%,58.88%{transform:translate(704px,48px)}49.22%{transform:translate(704px,32px)}49.53%{transform:translate(720px,32px)}49.84%{transform:translate(720px,16px)}50.16%,58.26%{transform:translate(704px,16px)}50.47%{transform:translate(704px,0)}51.4%{transform:translate(752px,0)}51.71%{transform:translate(752px,16px)}52.65%{transform:translate(736px,48px)}53.58%{transform:translate(752px,80px)}54.21%{transform:translate(720px,80px)}54.52%{transform:translate(720px,96px)}54.83%{transform:translate(704px,96px)}55.45%{transform:translate(704px,64px)}57.01%{transform:translate(656px,32px)}57.32%,64.17%{transform:translate(672px,32px)}57.63%,64.49%{transform:translate(672px,16px)}60.12%{transform:translate(688px,96px)}61.68%{transform:translate(608px,96px)}62.62%{transform:translate(608px,48px)}63.55%{transform:translate(640px,32px)}68.22%{transform:translate(832px,48px)}68.54%{transform:translate(848px,48px)}69.47%{transform:translate(848px,0)}73.21%{transform:translate(656px,0)}74.77%,77.26%{transform:translate(672px,64px)}75.08%{transform:translate(672px,80px)}76.01%{transform:translate(624px,80px)}76.32%{transform:translate(624px,64px)}77.57%{transform:translate(672px,48px)}78.19%{transform:translate(688px,32px)}81.93%{transform:translate(832px,80px)}94.08%{transform:translate(208px,80px)}94.39%{transform:translate(208px,64px)}95.33%{transform:translate(160px,64px)}95.64%{transform:translate(160px,48px)}96.57%{transform:translate(112px,48px)}97.51%{transform:translate(112px,0)}98.44%{transform:translate(64px,0)}98.75%{transform:translate(64px,-16px)}}@keyframes s2{0%,99.69%{transform:translate(32px,-16px)}.62%{transform:translate(0,-16px)}.93%{transform:translate(0,0)}14.02%{transform:translate(672px,0)}14.33%{transform:translate(672px,-16px)}14.64%{transform:translate(656px,-16px)}15.26%,17.76%{transform:translate(656px,16px)}15.89%,18.38%{transform:translate(624px,16px)}16.51%,19%{transform:translate(624px,48px)}17.13%{transform:translate(656px,48px)}19.31%,63.55%{transform:translate(640px,48px)}19.63%{transform:translate(640px,64px)}19.94%,56.7%,74.77%{transform:translate(656px,64px)}20.25%{transform:translate(656px,80px)}20.56%{transform:translate(640px,80px)}20.87%{transform:translate(640px,96px)}21.18%{transform:translate(656px,96px)}21.5%{transform:translate(656px,112px)}22.43%{transform:translate(704px,112px)}23.05%{transform:translate(704px,80px)}23.68%,40.5%{transform:translate(736px,80px)}23.99%,37.69%{transform:translate(736px,64px)}25.23%{transform:translate(800px,64px)}25.55%,33.02%{transform:translate(800px,48px)}25.86%{transform:translate(816px,48px)}26.17%{transform:translate(816px,32px)}26.48%,81.31%{transform:translate(832px,32px)}26.79%,67.91%{transform:translate(832px,16px)}27.73%{transform:translate(784px,16px)}28.04%{transform:translate(784px,0)}28.35%{transform:translate(768px,0)}28.66%{transform:translate(768px,16px)}29.28%,46.73%,52.34%{transform:translate(736px,16px)}29.6%{transform:translate(736px,0)}29.91%{transform:translate(720px,0)}30.22%{transform:translate(720px,-16px)}31.15%{transform:translate(768px,-16px)}32.09%{transform:translate(768px,32px)}32.71%,45.17%{transform:translate(800px,32px)}33.96%,53.27%{transform:translate(752px,48px)}34.27%,47.98%{transform:translate(752px,64px)}34.58%{transform:translate(768px,64px)}34.89%{transform:translate(768px,80px)}35.51%{transform:translate(800px,80px)}35.83%{transform:translate(800px,96px)}37.07%,40.81%{transform:translate(736px,96px)}38.01%,48.6%{transform:translate(720px,64px)}38.32%,48.91%{transform:translate(720px,48px)}38.94%,59.5%,78.19%{transform:translate(688px,48px)}39.56%{transform:translate(688px,80px)}42.99%{transform:translate(848px,96px)}44.24%{transform:translate(848px,32px)}45.48%{transform:translate(800px,16px)}47.04%{transform:translate(736px,32px)}47.35%{transform:translate(752px,32px)}49.22%,59.19%{transform:translate(704px,48px)}49.53%{transform:translate(704px,32px)}49.84%{transform:translate(720px,32px)}50.16%{transform:translate(720px,16px)}50.47%,58.57%{transform:translate(704px,16px)}50.78%{transform:translate(704px,0)}51.71%{transform:translate(752px,0)}52.02%{transform:translate(752px,16px)}52.96%{transform:translate(736px,48px)}53.89%{transform:translate(752px,80px)}54.52%{transform:translate(720px,80px)}54.83%{transform:translate(720px,96px)}55.14%{transform:translate(704px,96px)}55.76%{transform:translate(704px,64px)}57.32%{transform:translate(656px,32px)}57.63%,64.49%{transform:translate(672px,32px)}57.94%,64.8%{transform:translate(672px,16px)}60.44%{transform:translate(688px,96px)}61.99%{transform:translate(608px,96px)}62.93%{transform:translate(608px,48px)}63.86%{transform:translate(640px,32px)}68.54%{transform:translate(832px,48px)}68.85%{transform:translate(848px,48px)}69.78%{transform:translate(848px,0)}73.52%{transform:translate(656px,0)}75.08%,77.57%{transform:translate(672px,64px)}75.39%{transform:translate(672px,80px)}76.32%{transform:translate(624px,80px)}76.64%{transform:translate(624px,64px)}77.88%{transform:translate(672px,48px)}78.5%{transform:translate(688px,32px)}82.24%{transform:translate(832px,80px)}94.39%{transform:translate(208px,80px)}94.7%{transform:translate(208px,64px)}95.64%{transform:translate(160px,64px)}95.95%{transform:translate(160px,48px)}96.88%{transform:translate(112px,48px)}97.82%{transform:translate(112px,0)}98.75%{transform:translate(64px,0)}99.07%{transform:translate(64px,-16px)}}@keyframes s3{0%,99.69%{transform:translate(48px,-16px)}.93%{transform:translate(0,-16px)}1.25%{transform:translate(0,0)}14.33%{transform:translate(672px,0)}14.64%{transform:translate(672px,-16px)}14.95%{transform:translate(656px,-16px)}15.58%,18.07%{transform:translate(656px,16px)}16.2%,18.69%{transform:translate(624px,16px)}16.82%,19.31%{transform:translate(624px,48px)}17.45%{transform:translate(656px,48px)}19.63%,63.86%{transform:translate(640px,48px)}19.94%{transform:translate(640px,64px)}20.25%,57.01%,75.08%{transform:translate(656px,64px)}20.56%{transform:translate(656px,80px)}20.87%{transform:translate(640px,80px)}21.18%{transform:translate(640px,96px)}21.5%{transform:translate(656px,96px)}21.81%{transform:translate(656px,112px)}22.74%{transform:translate(704px,112px)}23.36%{transform:translate(704px,80px)}23.99%,40.81%{transform:translate(736px,80px)}24.3%,38.01%{transform:translate(736px,64px)}25.55%{transform:translate(800px,64px)}25.86%,33.33%{transform:translate(800px,48px)}26.17%{transform:translate(816px,48px)}26.48%{transform:translate(816px,32px)}26.79%,81.62%{transform:translate(832px,32px)}27.1%,68.22%{transform:translate(832px,16px)}28.04%{transform:translate(784px,16px)}28.35%{transform:translate(784px,0)}28.66%{transform:translate(768px,0)}28.97%{transform:translate(768px,16px)}29.6%,47.04%,52.65%{transform:translate(736px,16px)}29.91%{transform:translate(736px,0)}30.22%{transform:translate(720px,0)}30.53%{transform:translate(720px,-16px)}31.46%{transform:translate(768px,-16px)}32.4%{transform:translate(768px,32px)}33.02%,45.48%{transform:translate(800px,32px)}34.27%,53.58%{transform:translate(752px,48px)}34.58%,48.29%{transform:translate(752px,64px)}34.89%{transform:translate(768px,64px)}35.2%{transform:translate(768px,80px)}35.83%{transform:translate(800px,80px)}36.14%{transform:translate(800px,96px)}37.38%,41.12%{transform:translate(736px,96px)}38.32%,48.91%{transform:translate(720px,64px)}38.63%,49.22%{transform:translate(720px,48px)}39.25%,59.81%,78.5%{transform:translate(688px,48px)}39.88%{transform:translate(688px,80px)}43.3%{transform:translate(848px,96px)}44.55%{transform:translate(848px,32px)}45.79%{transform:translate(800px,16px)}47.35%{transform:translate(736px,32px)}47.66%{transform:translate(752px,32px)}49.53%,59.5%{transform:translate(704px,48px)}49.84%{transform:translate(704px,32px)}50.16%{transform:translate(720px,32px)}50.47%{transform:translate(720px,16px)}50.78%,58.88%{transform:translate(704px,16px)}51.09%{transform:translate(704px,0)}52.02%{transform:translate(752px,0)}52.34%{transform:translate(752px,16px)}53.27%{transform:translate(736px,48px)}54.21%{transform:translate(752px,80px)}54.83%{transform:translate(720px,80px)}55.14%{transform:translate(720px,96px)}55.45%{transform:translate(704px,96px)}56.07%{transform:translate(704px,64px)}57.63%{transform:translate(656px,32px)}57.94%,64.8%{transform:translate(672px,32px)}58.26%,65.11%{transform:translate(672px,16px)}60.75%{transform:translate(688px,96px)}62.31%{transform:translate(608px,96px)}63.24%{transform:translate(608px,48px)}64.17%{transform:translate(640px,32px)}68.85%{transform:translate(832px,48px)}69.16%{transform:translate(848px,48px)}70.09%{transform:translate(848px,0)}73.83%{transform:translate(656px,0)}75.39%,77.88%{transform:translate(672px,64px)}75.7%{transform:translate(672px,80px)}76.64%{transform:translate(624px,80px)}76.95%{transform:translate(624px,64px)}78.19%{transform:translate(672px,48px)}78.82%{transform:translate(688px,32px)}82.55%{transform:translate(832px,80px)}94.7%{transform:translate(208px,80px)}95.02%{transform:translate(208px,64px)}95.95%{transform:translate(160px,64px)}96.26%{transform:translate(160px,48px)}97.2%{transform:translate(112px,48px)}98.13%{transform:translate(112px,0)}99.07%{transform:translate(64px,0)}99.38%{transform:translate(64px,-16px)}}:root{--cb:#1b1f230a;--cs:purple;--ce:#ebedf0;--c0:#ebedf0;--c1:#9be9a8;--c2:#40c463;--c3:#30a14e;--c4:#216e39}@media (prefers-color-scheme:dark){:root{--cb:#1b1f230a;--cs:purple;--ce:#161b22;--c1:#01311f;--c2:#034525;--c3:#0f6d31;--c4:#00c647}}.c{shape-rendering:geometricPrecision;rx:2;ry:2;fill:var(--ce);stroke-width:1px;stroke:var(--cb);animation:none 32100ms linear infinite}.c.c0,.c.c1{fill:var(--c1);animation-name:c0}.c.c1{animation-name:c1}.c.c2{fill:var(--c4);animation-name:c2}.c.c3{fill:var(--c3);animation-name:c3}.c.c4{fill:var(--c2);animation-name:c4}.c.c5,.c.c6{fill:var(--c1);animation-name:c5}.c.c6{animation-name:c6}.c.c7{fill:var(--c2);animation-name:c7}.c.c8,.c.c9,.c.ca{fill:var(--c1);animation-name:c8}.c.c9,.c.ca{animation-name:c9}.c.ca{animation-name:ca}.c.cb,.c.cc,.c.cd{fill:var(--c1);animation-name:cb}.c.cc,.c.cd{animation-name:cc}.c.cd{animation-name:cd}.c.ce,.c.cf,.c.cg{fill:var(--c1);animation-name:ce}.c.cf,.c.cg{animation-name:cf}.c.cg{animation-name:cg}.c.ch,.c.ci{fill:var(--c2);animation-name:ch}.c.ci{animation-name:ci}.c.cj{fill:var(--c4);animation-name:cj}.c.ck{fill:var(--c2);animation-name:ck}.c.cl{fill:var(--c3);animation-name:cl}.c.cm{fill:var(--c2);animation-name:cm}.c.cn{fill:var(--c3);animation-name:cn}.c.co{fill:var(--c2);animation-name:co}.c.cp{fill:var(--c4);animation-name:cp}.c.cq,.c.cr{fill:var(--c1);animation-name:cq}.c.cr{animation-name:cr}.c.cs,.c.ct{fill:var(--c2);animation-name:cs}.c.ct{animation-name:ct}.c.cu,.c.cv{fill:var(--c1);animation-name:cu}.c.cv{animation-name:cv}.c.cw{fill:var(--c2);animation-name:cw}.c.cx,.c.cy,.c.cz{fill:var(--c1);animation-name:cx}.c.cy,.c.cz{animation-name:cy}.c.cz{animation-name:cz}.c.c10,.c.c11{fill:var(--c2);animation-name:c10}.c.c11{animation-name:c11}.c.c12,.c.c13{fill:var(--c1);animation-name:c12}.c.c13{animation-name:c13}.c.c14{fill:var(--c2);animation-name:c14}.c.c15,.c.c16,.c.c17{fill:var(--c1);animation-name:c15}.c.c16,.c.c17{animation-name:c16}.c.c17{animation-name:c17}.c.c18{fill:var(--c2);animation-name:c18}.c.c19{fill:var(--c1);animation-name:c19}.c.c1a{fill:var(--c2);animation-name:c1a}.c.c1b{fill:var(--c1);animation-name:c1b}.c.c1c{fill:var(--c2);animation-name:c1c}.c.c1d,.c.c1e{fill:var(--c1);animation-name:c1d}.c.c1e{animation-name:c1e}.c.c1f{fill:var(--c2);animation-name:c1f}.c.c1g,.c.c1h{fill:var(--c1);animation-name:c1g}.c.c1h{animation-name:c1h}.c.c1i,.c.c1j,.c.c1k{fill:var(--c1);animation-name:c1i}.c.c1j,.c.c1k{animation-name:c1j}.c.c1k{animation-name:c1k}.c.c1l,.c.c1m,.c.c1n{fill:var(--c1);animation-name:c1l}.c.c1m,.c.c1n{animation-name:c1m}.c.c1n{animation-name:c1n}.c.c1o,.c.c1p,.c.c1q{fill:var(--c1);animation-name:c1o}.c.c1p,.c.c1q{animation-name:c1p}.c.c1q{animation-name:c1q}.c.c1r,.c.c1s,.c.c1t{fill:var(--c1);animation-name:c1r}.c.c1s,.c.c1t{animation-name:c1s}.c.c1t{animation-name:c1t}.c.c1u,.c.c1v,.c.c1w{fill:var(--c1);animation-name:c1u}.c.c1v,.c.c1w{animation-name:c1v}.c.c1w{animation-name:c1w}.c.c1x,.c.c1y,.c.c1z{fill:var(--c1);animation-name:c1x}.c.c1y,.c.c1z{animation-name:c1y}.c.c1z{animation-name:c1z}.c.c20{fill:var(--c3);animation-name:c20}.c.c21{fill:var(--c1);animation-name:c21}.c.c22{fill:var(--c2);animation-name:c22}.c.c23,.c.c24{fill:var(--c4);animation-name:c23}.c.c24{animation-name:c24}.c.c25{fill:var(--c1);animation-name:c25}.s,.u{animation:none linear 32100ms infinite}.u,.u.u0{transform-origin:0 0}.u{transform:scale(0,1)}.u.u0{fill:var(--c1);animation-name:u0}.u.u1{fill:var(--c2);animation-name:u1;transform-origin:543.6px 0}.u.u2{fill:var(--c1);animation-name:u2;transform-origin:554.5px 0}.u.u3{fill:var(--c2);animation-name:u3;transform-origin:565.3px 0}.u.u4{fill:var(--c3);animation-name:u4;transform-origin:750.2px 0}.u.u5{fill:var(--c4);animation-name:u5;transform-origin:793.6px 0}.s{shape-rendering:geometricPrecision;fill:var(--cs)}.s.s0{transform:translate(0,-16px);animation-name:s0}.s.s1{transform:translate(16px,-16px);animation-name:s1}.s.s2{transform:translate(32px,-16px);animation-name:s2}.s.s3{transform:translate(48px,-16px);animation-name:s3}</style><rect class="c" x="2" y="2" width="12" height="12"/><rect class="c" x="2" y="18" width="12" height="12"/><rect class="c" x="2" y="34" width="12" height="12"/><rect class="c" x="2" y="50" width="12" height="12"/><rect class="c" x="2" y="66" width="12" height="12"/><rect class="c" x="2" y="82" width="12" height="12"/><rect class="c" x="2" y="98" width="12" height="12"/><rect class="c" x="18" y="2" width="12" height="12"/><rect class="c" x="18" y="18" width="12" height="12"/><rect class="c" x="18" y="34" width="12" height="12"/><rect class="c" x="18" y="50" width="12" height="12"/><rect class="c" x="18" y="66" width="12" height="12"/><rect class="c" x="18" y="82" width="12" height="12"/><rect class="c" x="18" y="98" width="12" height="12"/><rect class="c" x="34" y="2" width="12" height="12"/><rect class="c" x="34" y="18" width="12" height="12"/><rect class="c" x="34" y="34" width="12" height="12"/><rect class="c" x="34" y="50" width="12" height="12"/><rect class="c" x="34" y="66" width="12" height="12"/><rect class="c" x="34" y="82" width="12" height="12"/><rect class="c" x="34" y="98" width="12" height="12"/><rect class="c" x="50" y="2" width="12" height="12"/><rect class="c" x="50" y="18" width="12" height="12"/><rect class="c" x="50" y="34" width="12" height="12"/><rect class="c" x="50" y="50" width="12" height="12"/><rect class="c" x="50" y="66" width="12" height="12"/><rect class="c" x="50" y="82" width="12" height="12"/><rect class="c" x="50" y="98" width="12" height="12"/><rect class="c" x="66" y="2" width="12" height="12"/><rect class="c" x="66" y="18" width="12" height="12"/><rect class="c" x="66" y="34" width="12" height="12"/><rect class="c" x="66" y="50" width="12" height="12"/><rect class="c" x="66" y="66" width="12" height="12"/><rect class="c" x="66" y="82" width="12" height="12"/><rect class="c" x="66" y="98" width="12" height="12"/><rect class="c" x="82" y="2" width="12" height="12"/><rect class="c" x="82" y="18" width="12" height="12"/><rect class="c" x="82" y="34" width="12" height="12"/><rect class="c" x="82" y="50" width="12" height="12"/><rect class="c" x="82" y="66" width="12" height="12"/><rect class="c" x="82" y="82" width="12" height="12"/><rect class="c" x="82" y="98" width="12" height="12"/><rect class="c" x="98" y="2" width="12" height="12"/><rect class="c" x="98" y="18" width="12" height="12"/><rect class="c" x="98" y="34" width="12" height="12"/><rect class="c" x="98" y="50" width="12" height="12"/><rect class="c" x="98" y="66" width="12" height="12"/><rect class="c" x="98" y="82" width="12" height="12"/><rect class="c" x="98" y="98" width="12" height="12"/><rect class="c" x="114" y="2" width="12" height="12"/><rect class="c" x="114" y="18" width="12" height="12"/><rect class="c" x="114" y="34" width="12" height="12"/><rect class="c" x="114" y="50" width="12" height="12"/><rect class="c" x="114" y="66" width="12" height="12"/><rect class="c" x="114" y="82" width="12" height="12"/><rect class="c" x="114" y="98" width="12" height="12"/><rect class="c" x="130" y="2" width="12" height="12"/><rect class="c" x="130" y="18" width="12" height="12"/><rect class="c" x="130" y="34" width="12" height="12"/><rect class="c" x="130" y="50" width="12" height="12"/><rect class="c" x="130" y="66" width="12" height="12"/><rect class="c" x="130" y="82" width="12" height="12"/><rect class="c" x="130" y="98" width="12" height="12"/><rect class="c" x="146" y="2" width="12" height="12"/><rect class="c" x="146" y="18" width="12" height="12"/><rect class="c" x="146" y="34" width="12" height="12"/><rect class="c" x="146" y="50" width="12" height="12"/><rect class="c" x="146" y="66" width="12" height="12"/><rect class="c" x="146" y="82" width="12" height="12"/><rect class="c" x="146" y="98" width="12" height="12"/><rect class="c" x="162" y="2" width="12" height="12"/><rect class="c" x="162" y="18" width="12" height="12"/><rect class="c" x="162" y="34" width="12" height="12"/><rect class="c" x="162" y="50" width="12" height="12"/><rect class="c" x="162" y="66" width="12" height="12"/><rect class="c" x="162" y="82" width="12" height="12"/><rect class="c" x="162" y="98" width="12" height="12"/><rect class="c" x="178" y="2" width="12" height="12"/><rect class="c" x="178" y="18" width="12" height="12"/><rect class="c" x="178" y="34" width="12" height="12"/><rect class="c" x="178" y="50" width="12" height="12"/><rect class="c" x="178" y="66" width="12" height="12"/><rect class="c" x="178" y="82" width="12" height="12"/><rect class="c" x="178" y="98" width="12" height="12"/><rect class="c" x="194" y="2" width="12" height="12"/><rect class="c" x="194" y="18" width="12" height="12"/><rect class="c" x="194" y="34" width="12" height="12"/><rect class="c" x="194" y="50" width="12" height="12"/><rect class="c" x="194" y="66" width="12" height="12"/><rect class="c" x="194" y="82" width="12" height="12"/><rect class="c" x="194" y="98" width="12" height="12"/><rect class="c" x="210" y="2" width="12" height="12"/><rect class="c" x="210" y="18" width="12" height="12"/><rect class="c" x="210" y="34" width="12" height="12"/><rect class="c" x="210" y="50" width="12" height="12"/><rect class="c" x="210" y="66" width="12" height="12"/><rect class="c" x="210" y="82" width="12" height="12"/><rect class="c" x="210" y="98" width="12" height="12"/><rect class="c" x="226" y="2" width="12" height="12"/><rect class="c" x="226" y="18" width="12" height="12"/><rect class="c" x="226" y="34" width="12" height="12"/><rect class="c" x="226" y="50" width="12" height="12"/><rect class="c" x="226" y="66" width="12" height="12"/><rect class="c" x="226" y="82" width="12" height="12"/><rect class="c" x="226" y="98" width="12" height="12"/><rect class="c" x="242" y="2" width="12" height="12"/><rect class="c" x="242" y="18" width="12" height="12"/><rect class="c" x="242" y="34" width="12" height="12"/><rect class="c" x="242" y="50" width="12" height="12"/><rect class="c" x="242" y="66" width="12" height="12"/><rect class="c" x="242" y="82" width="12" height="12"/><rect class="c" x="242" y="98" width="12" height="12"/><rect class="c" x="258" y="2" width="12" height="12"/><rect class="c" x="258" y="18" width="12" height="12"/><rect class="c" x="258" y="34" width="12" height="12"/><rect class="c" x="258" y="50" width="12" height="12"/><rect class="c" x="258" y="66" width="12" height="12"/><rect class="c" x="258" y="82" width="12" height="12"/><rect class="c" x="258" y="98" width="12" height="12"/><rect class="c" x="274" y="2" width="12" height="12"/><rect class="c" x="274" y="18" width="12" height="12"/><rect class="c" x="274" y="34" width="12" height="12"/><rect class="c" x="274" y="50" width="12" height="12"/><rect class="c" x="274" y="66" width="12" height="12"/><rect class="c" x="274" y="82" width="12" height="12"/><rect class="c" x="274" y="98" width="12" height="12"/><rect class="c" x="290" y="2" width="12" height="12"/><rect class="c" x="290" y="18" width="12" height="12"/><rect class="c" x="290" y="34" width="12" height="12"/><rect class="c" x="290" y="50" width="12" height="12"/><rect class="c" x="290" y="66" width="12" height="12"/><rect class="c" x="290" y="82" width="12" height="12"/><rect class="c" x="290" y="98" width="12" height="12"/><rect class="c" x="306" y="2" width="12" height="12"/><rect class="c" x="306" y="18" width="12" height="12"/><rect class="c" x="306" y="34" width="12" height="12"/><rect class="c" x="306" y="50" width="12" height="12"/><rect class="c" x="306" y="66" width="12" height="12"/><rect class="c" x="306" y="82" width="12" height="12"/><rect class="c" x="306" y="98" width="12" height="12"/><rect class="c" x="322" y="2" width="12" height="12"/><rect class="c" x="322" y="18" width="12" height="12"/><rect class="c" x="322" y="34" width="12" height="12"/><rect class="c" x="322" y="50" width="12" height="12"/><rect class="c" x="322" y="66" width="12" height="12"/><rect class="c" x="322" y="82" width="12" height="12"/><rect class="c" x="322" y="98" width="12" height="12"/><rect class="c" x="338" y="2" width="12" height="12"/><rect class="c" x="338" y="18" width="12" height="12"/><rect class="c" x="338" y="34" width="12" height="12"/><rect class="c" x="338" y="50" width="12" height="12"/><rect class="c" x="338" y="66" width="12" height="12"/><rect class="c" x="338" y="82" width="12" height="12"/><rect class="c" x="338" y="98" width="12" height="12"/><rect class="c" x="354" y="2" width="12" height="12"/><rect class="c" x="354" y="18" width="12" height="12"/><rect class="c" x="354" y="34" width="12" height="12"/><rect class="c" x="354" y="50" width="12" height="12"/><rect class="c" x="354" y="66" width="12" height="12"/><rect class="c" x="354" y="82" width="12" height="12"/><rect class="c" x="354" y="98" width="12" height="12"/><rect class="c" x="370" y="2" width="12" height="12"/><rect class="c" x="370" y="18" width="12" height="12"/><rect class="c" x="370" y="34" width="12" height="12"/><rect class="c" x="370" y="50" width="12" height="12"/><rect class="c" x="370" y="66" width="12" height="12"/><rect class="c" x="370" y="82" width="12" height="12"/><rect class="c" x="370" y="98" width="12" height="12"/><rect class="c" x="386" y="2" width="12" height="12"/><rect class="c" x="386" y="18" width="12" height="12"/><rect class="c" x="386" y="34" width="12" height="12"/><rect class="c" x="386" y="50" width="12" height="12"/><rect class="c" x="386" y="66" width="12" height="12"/><rect class="c" x="386" y="82" width="12" height="12"/><rect class="c" x="386" y="98" width="12" height="12"/><rect class="c" x="402" y="2" width="12" height="12"/><rect class="c" x="402" y="18" width="12" height="12"/><rect class="c" x="402" y="34" width="12" height="12"/><rect class="c" x="402" y="50" width="12" height="12"/><rect class="c" x="402" y="66" width="12" height="12"/><rect class="c" x="402" y="82" width="12" height="12"/><rect class="c" x="402" y="98" width="12" height="12"/><rect class="c" x="418" y="2" width="12" height="12"/><rect class="c" x="418" y="18" width="12" height="12"/><rect class="c" x="418" y="34" width="12" height="12"/><rect class="c" x="418" y="50" width="12" height="12"/><rect class="c" x="418" y="66" width="12" height="12"/><rect class="c" x="418" y="82" width="12" height="12"/><rect class="c" x="418" y="98" width="12" height="12"/><rect class="c" x="434" y="2" width="12" height="12"/><rect class="c" x="434" y="18" width="12" height="12"/><rect class="c" x="434" y="34" width="12" height="12"/><rect class="c" x="434" y="50" width="12" height="12"/><rect class="c" x="434" y="66" width="12" height="12"/><rect class="c" x="434" y="82" width="12" height="12"/><rect class="c" x="434" y="98" width="12" height="12"/><rect class="c" x="450" y="2" width="12" height="12"/><rect class="c" x="450" y="18" width="12" height="12"/><rect class="c" x="450" y="34" width="12" height="12"/><rect class="c" x="450" y="50" width="12" height="12"/><rect class="c" x="450" y="66" width="12" height="12"/><rect class="c" x="450" y="82" width="12" height="12"/><rect class="c" x="450" y="98" width="12" height="12"/><rect class="c" x="466" y="2" width="12" height="12"/><rect class="c" x="466" y="18" width="12" height="12"/><rect class="c" x="466" y="34" width="12" height="12"/><rect class="c" x="466" y="50" width="12" height="12"/><rect class="c" x="466" y="66" width="12" height="12"/><rect class="c" x="466" y="82" width="12" height="12"/><rect class="c" x="466" y="98" width="12" height="12"/><rect class="c" x="482" y="2" width="12" height="12"/><rect class="c" x="482" y="18" width="12" height="12"/><rect class="c" x="482" y="34" width="12" height="12"/><rect class="c" x="482" y="50" width="12" height="12"/><rect class="c" x="482" y="66" width="12" height="12"/><rect class="c" x="482" y="82" width="12" height="12"/><rect class="c" x="482" y="98" width="12" height="12"/><rect class="c" x="498" y="2" width="12" height="12"/><rect class="c" x="498" y="18" width="12" height="12"/><rect class="c" x="498" y="34" width="12" height="12"/><rect class="c" x="498" y="50" width="12" height="12"/><rect class="c" x="498" y="66" width="12" height="12"/><rect class="c" x="498" y="82" width="12" height="12"/><rect class="c" x="498" y="98" width="12" height="12"/><rect class="c" x="514" y="2" width="12" height="12"/><rect class="c" x="514" y="18" width="12" height="12"/><rect class="c" x="514" y="34" width="12" height="12"/><rect class="c" x="514" y="50" width="12" height="12"/><rect class="c" x="514" y="66" width="12" height="12"/><rect class="c" x="514" y="82" width="12" height="12"/><rect class="c" x="514" y="98" width="12" height="12"/><rect class="c" x="530" y="2" width="12" height="12"/><rect class="c" x="530" y="18" width="12" height="12"/><rect class="c" x="530" y="34" width="12" height="12"/><rect class="c" x="530" y="50" width="12" height="12"/><rect class="c" x="530" y="66" width="12" height="12"/><rect class="c" x="530" y="82" width="12" height="12"/><rect class="c" x="530" y="98" width="12" height="12"/><rect class="c" x="546" y="2" width="12" height="12"/><rect class="c" x="546" y="18" width="12" height="12"/><rect class="c" x="546" y="34" width="12" height="12"/><rect class="c" x="546" y="50" width="12" height="12"/><rect class="c" x="546" y="66" width="12" height="12"/><rect class="c" x="546" y="82" width="12" height="12"/><rect class="c" x="546" y="98" width="12" height="12"/><rect class="c" x="562" y="2" width="12" height="12"/><rect class="c" x="562" y="18" width="12" height="12"/><rect class="c" x="562" y="34" width="12" height="12"/><rect class="c" x="562" y="50" width="12" height="12"/><rect class="c" x="562" y="66" width="12" height="12"/><rect class="c" x="562" y="82" width="12" height="12"/><rect class="c" x="562" y="98" width="12" height="12"/><rect class="c" x="578" y="2" width="12" height="12"/><rect class="c" x="578" y="18" width="12" height="12"/><rect class="c" x="578" y="34" width="12" height="12"/><rect class="c" x="578" y="50" width="12" height="12"/><rect class="c" x="578" y="66" width="12" height="12"/><rect class="c" x="578" y="82" width="12" height="12"/><rect class="c" x="578" y="98" width="12" height="12"/><rect class="c" x="594" y="2" width="12" height="12"/><rect class="c" x="594" y="18" width="12" height="12"/><rect class="c" x="594" y="34" width="12" height="12"/><rect class="c" x="594" y="50" width="12" height="12"/><rect class="c" x="594" y="66" width="12" height="12"/><rect class="c" x="594" y="82" width="12" height="12"/><rect class="c" x="594" y="98" width="12" height="12"/><rect class="c c0" x="610" y="2" width="12" height="12"/><rect class="c" x="610" y="18" width="12" height="12"/><rect class="c" x="610" y="34" width="12" height="12"/><rect class="c" x="610" y="50" width="12" height="12"/><rect class="c" x="610" y="66" width="12" height="12"/><rect class="c" x="610" y="82" width="12" height="12"/><rect class="c" x="610" y="98" width="12" height="12"/><rect class="c" x="626" y="2" width="12" height="12"/><rect class="c" x="626" y="18" width="12" height="12"/><rect class="c" x="626" y="34" width="12" height="12"/><rect class="c c1" x="626" y="50" width="12" height="12"/><rect class="c c2" x="626" y="66" width="12" height="12"/><rect class="c c3" x="626" y="82" width="12" height="12"/><rect class="c c4" x="626" y="98" width="12" height="12"/><rect class="c c5" x="642" y="2" width="12" height="12"/><rect class="c c6" x="642" y="18" width="12" height="12"/><rect class="c c7" x="642" y="34" width="12" height="12"/><rect class="c" x="642" y="50" width="12" height="12"/><rect class="c" x="642" y="66" width="12" height="12"/><rect class="c c8" x="642" y="82" width="12" height="12"/><rect class="c" x="642" y="98" width="12" height="12"/><rect class="c c9" x="658" y="2" width="12" height="12"/><rect class="c ca" x="658" y="18" width="12" height="12"/><rect class="c cb" x="658" y="34" width="12" height="12"/><rect class="c cc" x="658" y="50" width="12" height="12"/><rect class="c cd" x="658" y="66" width="12" height="12"/><rect class="c ce" x="658" y="82" width="12" height="12"/><rect class="c cf" x="658" y="98" width="12" height="12"/><rect class="c cg" x="674" y="2" width="12" height="12"/><rect class="c ch" x="674" y="18" width="12" height="12"/><rect class="c ci" x="674" y="34" width="12" height="12"/><rect class="c cj" x="674" y="50" width="12" height="12"/><rect class="c ck" x="674" y="66" width="12" height="12"/><rect class="c cl" x="674" y="82" width="12" height="12"/><rect class="c cm" x="674" y="98" width="12" height="12"/><rect class="c cn" x="690" y="2" width="12" height="12"/><rect class="c co" x="690" y="18" width="12" height="12"/><rect class="c cp" x="690" y="34" width="12" height="12"/><rect class="c cq" x="690" y="50" width="12" height="12"/><rect class="c cr" x="690" y="66" width="12" height="12"/><rect class="c" x="690" y="82" width="12" height="12"/><rect class="c" x="690" y="98" width="12" height="12"/><rect class="c cs" x="706" y="2" width="12" height="12"/><rect class="c ct" x="706" y="18" width="12" height="12"/><rect class="c cu" x="706" y="34" width="12" height="12"/><rect class="c cv" x="706" y="50" width="12" height="12"/><rect class="c cw" x="706" y="66" width="12" height="12"/><rect class="c cx" x="706" y="82" width="12" height="12"/><rect class="c cy" x="706" y="98" width="12" height="12"/><rect class="c cz" x="722" y="2" width="12" height="12"/><rect class="c c10" x="722" y="18" width="12" height="12"/><rect class="c c11" x="722" y="34" width="12" height="12"/><rect class="c c12" x="722" y="50" width="12" height="12"/><rect class="c c13" x="722" y="66" width="12" height="12"/><rect class="c" x="722" y="82" width="12" height="12"/><rect class="c c14" x="722" y="98" width="12" height="12"/><rect class="c c15" x="738" y="2" width="12" height="12"/><rect class="c c16" x="738" y="18" width="12" height="12"/><rect class="c c17" x="738" y="34" width="12" height="12"/><rect class="c c18" x="738" y="50" width="12" height="12"/><rect class="c" x="738" y="66" width="12" height="12"/><rect class="c" x="738" y="82" width="12" height="12"/><rect class="c c19" x="738" y="98" width="12" height="12"/><rect class="c c1a" x="754" y="2" width="12" height="12"/><rect class="c c1b" x="754" y="18" width="12" height="12"/><rect class="c c1c" x="754" y="34" width="12" height="12"/><rect class="c c1d" x="754" y="50" width="12" height="12"/><rect class="c c1e" x="754" y="66" width="12" height="12"/><rect class="c c1f" x="754" y="82" width="12" height="12"/><rect class="c c1g" x="754" y="98" width="12" height="12"/><rect class="c c1h" x="770" y="2" width="12" height="12"/><rect class="c c1i" x="770" y="18" width="12" height="12"/><rect class="c c1j" x="770" y="34" width="12" height="12"/><rect class="c" x="770" y="50" width="12" height="12"/><rect class="c c1k" x="770" y="66" width="12" height="12"/><rect class="c c1l" x="770" y="82" width="12" height="12"/><rect class="c c1m" x="770" y="98" width="12" height="12"/><rect class="c c1n" x="786" y="2" width="12" height="12"/><rect class="c c1o" x="786" y="18" width="12" height="12"/><rect class="c c1p" x="786" y="34" width="12" height="12"/><rect class="c" x="786" y="50" width="12" height="12"/><rect class="c c1q" x="786" y="66" width="12" height="12"/><rect class="c" x="786" y="82" width="12" height="12"/><rect class="c c1r" x="786" y="98" width="12" height="12"/><rect class="c" x="802" y="2" width="12" height="12"/><rect class="c c1s" x="802" y="18" width="12" height="12"/><rect class="c c1t" x="802" y="34" width="12" height="12"/><rect class="c c1u" x="802" y="50" width="12" height="12"/><rect class="c c1v" x="802" y="66" width="12" height="12"/><rect class="c c1w" x="802" y="82" width="12" height="12"/><rect class="c c1x" x="802" y="98" width="12" height="12"/><rect class="c" x="818" y="2" width="12" height="12"/><rect class="c c1y" x="818" y="18" width="12" height="12"/><rect class="c" x="818" y="34" width="12" height="12"/><rect class="c c1z" x="818" y="50" width="12" height="12"/><rect class="c" x="818" y="66" width="12" height="12"/><rect class="c" x="818" y="82" width="12" height="12"/><rect class="c" x="818" y="98" width="12" height="12"/><rect class="c c20" x="834" y="2" width="12" height="12"/><rect class="c" x="834" y="18" width="12" height="12"/><rect class="c c21" x="834" y="34" width="12" height="12"/><rect class="c c22" x="834" y="50" width="12" height="12"/><rect class="c c23" x="834" y="66" width="12" height="12"/><rect class="c c24" x="834" y="82" width="12" height="12"/><rect class="c c25" x="834" y="98" width="12" height="12"/><rect class="u u0" height="12" width="544.2" x="0.0" y="144"/><rect class="u u1" height="12" width="11.5" x="543.6" y="144"/><rect class="u u2" height="12" width="11.5" x="554.5" y="144"/><rect class="u u3" height="12" width="185.4" x="565.3" y="144"/><rect class="u u4" height="12" width="44.1" x="750.2" y="144"/><rect class="u u5" height="12" width="55.0" x="793.6" y="144"/><rect class="s s0" x="0.8" y="0.8" width="14.4" height="14.4" rx="4.5" ry="4.5"/><rect class="s s1" x="1.8" y="1.8" width="12.3" height="12.3" rx="4.1" ry="4.1"/><rect class="s s2" x="2.6" y="2.6" width="10.8" height="10.8" rx="3.6" ry="3.6"/><rect class="s s3" x="3.0" y="3.0" width="9.9" height="9.9" rx="3.3" ry="3.3"/></svg>